<mxfile host="app.diagrams.net" modified="2021-05-16T21:10:04.848Z" agent="5.0 (Macintosh; Intel Mac OS X 10_15_7) AppleWebKit/537.36 (KHTML, like Gecko) Chrome/90.0.4430.212 Safari/537.36" etag="LoxPXTpIorqdsqKwkICe" version="14.6.13" type="github">
  <diagram name="Page-1" id="13e1069c-82ec-6db2-03f1-153e76fe0fe0">
    <mxGraphModel dx="2066" dy="1186" grid="1" gridSize="10" guides="1" tooltips="1" connect="1" arrows="1" fold="1" page="1" pageScale="1" pageWidth="1100" pageHeight="850" background="#ffffff" math="0" shadow="0">
      <root>
        <mxCell id="0" />
        <mxCell id="1" parent="0" />
        <mxCell id="7baba1c4bc27f4b0-2" value=":bookstore-service" style="shape=umlLifeline;perimeter=lifelinePerimeter;whiteSpace=wrap;html=1;container=1;collapsible=0;recursiveResize=0;outlineConnect=0;rounded=1;shadow=0;comic=0;labelBackgroundColor=none;strokeWidth=1;fontFamily=Verdana;fontSize=12;align=center;" parent="1" vertex="1">
          <mxGeometry x="260" y="80" width="100" height="770" as="geometry" />
        </mxCell>
        <mxCell id="7baba1c4bc27f4b0-10" value="" style="html=1;points=[];perimeter=orthogonalPerimeter;rounded=0;shadow=0;comic=0;labelBackgroundColor=none;strokeWidth=1;fontFamily=Verdana;fontSize=12;align=center;" parent="7baba1c4bc27f4b0-2" vertex="1">
          <mxGeometry x="45" y="110" width="10" height="650" as="geometry" />
        </mxCell>
        <mxCell id="7baba1c4bc27f4b0-3" value=":database" style="shape=umlLifeline;perimeter=lifelinePerimeter;whiteSpace=wrap;html=1;container=1;collapsible=0;recursiveResize=0;outlineConnect=0;rounded=1;shadow=0;comic=0;labelBackgroundColor=none;strokeWidth=1;fontFamily=Verdana;fontSize=12;align=center;" parent="1" vertex="1">
          <mxGeometry x="500" y="80" width="100" height="770" as="geometry" />
        </mxCell>
        <mxCell id="7baba1c4bc27f4b0-13" value="" style="html=1;points=[];perimeter=orthogonalPerimeter;rounded=0;shadow=0;comic=0;labelBackgroundColor=none;strokeWidth=1;fontFamily=Verdana;fontSize=12;align=center;" parent="7baba1c4bc27f4b0-3" vertex="1">
          <mxGeometry x="45" y="120" width="10" height="150" as="geometry" />
        </mxCell>
        <mxCell id="7baba1c4bc27f4b0-8" value=":client" style="shape=umlLifeline;perimeter=lifelinePerimeter;whiteSpace=wrap;html=1;container=1;collapsible=0;recursiveResize=0;outlineConnect=0;rounded=1;shadow=0;comic=0;labelBackgroundColor=none;strokeWidth=1;fontFamily=Verdana;fontSize=12;align=center;" parent="1" vertex="1">
          <mxGeometry x="100" y="80" width="100" height="770" as="geometry" />
        </mxCell>
        <mxCell id="7baba1c4bc27f4b0-9" value="" style="html=1;points=[];perimeter=orthogonalPerimeter;rounded=0;shadow=0;comic=0;labelBackgroundColor=none;strokeWidth=1;fontFamily=Verdana;fontSize=12;align=center;" parent="7baba1c4bc27f4b0-8" vertex="1">
          <mxGeometry x="45" y="100" width="10" height="660" as="geometry" />
        </mxCell>
        <mxCell id="7baba1c4bc27f4b0-23" value="POST:login" style="html=1;verticalAlign=bottom;endArrow=block;labelBackgroundColor=none;fontFamily=Verdana;fontSize=12;" parent="1" edge="1">
          <mxGeometry relative="1" as="geometry">
            <mxPoint x="160" y="280" as="sourcePoint" />
            <mxPoint x="310" y="280" as="targetPoint" />
          </mxGeometry>
        </mxCell>
        <mxCell id="7baba1c4bc27f4b0-30" value="result" style="html=1;verticalAlign=bottom;endArrow=open;dashed=1;endSize=8;labelBackgroundColor=none;fontFamily=Verdana;fontSize=12;edgeStyle=elbowEdgeStyle;elbow=horizontal;" parent="1" source="7baba1c4bc27f4b0-3" edge="1">
          <mxGeometry relative="1" as="geometry">
            <mxPoint x="320" y="230" as="targetPoint" />
            <Array as="points">
              <mxPoint x="380" y="230" />
            </Array>
            <mxPoint x="530" y="230" as="sourcePoint" />
          </mxGeometry>
        </mxCell>
        <mxCell id="7baba1c4bc27f4b0-11" value="POST:users" style="html=1;verticalAlign=bottom;endArrow=block;entryX=0;entryY=0;labelBackgroundColor=none;fontFamily=Verdana;fontSize=12;edgeStyle=elbowEdgeStyle;elbow=vertical;" parent="1" source="7baba1c4bc27f4b0-9" target="7baba1c4bc27f4b0-10" edge="1">
          <mxGeometry relative="1" as="geometry">
            <mxPoint x="220" y="190" as="sourcePoint" />
            <Array as="points">
              <mxPoint x="290" y="190" />
            </Array>
          </mxGeometry>
        </mxCell>
        <mxCell id="7baba1c4bc27f4b0-14" value="saveUser" style="html=1;verticalAlign=bottom;endArrow=block;entryX=0;entryY=0;labelBackgroundColor=none;fontFamily=Verdana;fontSize=12;edgeStyle=elbowEdgeStyle;elbow=vertical;" parent="1" source="7baba1c4bc27f4b0-10" target="7baba1c4bc27f4b0-13" edge="1">
          <mxGeometry relative="1" as="geometry">
            <mxPoint x="370" y="200" as="sourcePoint" />
          </mxGeometry>
        </mxCell>
        <mxCell id="kKu1ekH3sPzgoW_WzyBz-2" value="result" style="html=1;verticalAlign=bottom;endArrow=open;dashed=1;endSize=8;labelBackgroundColor=none;fontFamily=Verdana;fontSize=12;edgeStyle=elbowEdgeStyle;elbow=horizontal;" edge="1" parent="1" source="7baba1c4bc27f4b0-2">
          <mxGeometry relative="1" as="geometry">
            <mxPoint x="160" y="248" as="targetPoint" />
            <Array as="points">
              <mxPoint x="270" y="248" />
              <mxPoint x="250" y="240" />
            </Array>
            <mxPoint x="280" y="248" as="sourcePoint" />
          </mxGeometry>
        </mxCell>
        <mxCell id="kKu1ekH3sPzgoW_WzyBz-3" value=":scb-book-api" style="shape=umlLifeline;perimeter=lifelinePerimeter;whiteSpace=wrap;html=1;container=1;collapsible=0;recursiveResize=0;outlineConnect=0;rounded=1;shadow=0;comic=0;labelBackgroundColor=none;strokeWidth=1;fontFamily=Verdana;fontSize=12;align=center;" vertex="1" parent="1">
          <mxGeometry x="660" y="80" width="100" height="770" as="geometry" />
        </mxCell>
        <mxCell id="kKu1ekH3sPzgoW_WzyBz-4" value="" style="html=1;points=[];perimeter=orthogonalPerimeter;rounded=0;shadow=0;comic=0;labelBackgroundColor=none;strokeWidth=1;fontFamily=Verdana;fontSize=12;align=center;" vertex="1" parent="kKu1ekH3sPzgoW_WzyBz-3">
          <mxGeometry x="45" y="330" width="10" height="120" as="geometry" />
        </mxCell>
        <mxCell id="kKu1ekH3sPzgoW_WzyBz-6" value="getUserByUsername" style="html=1;verticalAlign=bottom;endArrow=block;labelBackgroundColor=none;fontFamily=Verdana;fontSize=12;" edge="1" parent="1" target="7baba1c4bc27f4b0-3">
          <mxGeometry relative="1" as="geometry">
            <mxPoint x="320" y="300" as="sourcePoint" />
            <mxPoint x="470" y="300" as="targetPoint" />
          </mxGeometry>
        </mxCell>
        <mxCell id="kKu1ekH3sPzgoW_WzyBz-9" value="user" style="html=1;verticalAlign=bottom;endArrow=open;dashed=1;endSize=8;labelBackgroundColor=none;fontFamily=Verdana;fontSize=12;edgeStyle=elbowEdgeStyle;elbow=horizontal;exitX=0;exitY=0.873;exitDx=0;exitDy=0;exitPerimeter=0;" edge="1" parent="1" source="7baba1c4bc27f4b0-13">
          <mxGeometry relative="1" as="geometry">
            <mxPoint x="320" y="330" as="targetPoint" />
            <Array as="points">
              <mxPoint x="380" y="330" />
            </Array>
            <mxPoint x="500" y="330" as="sourcePoint" />
          </mxGeometry>
        </mxCell>
        <mxCell id="kKu1ekH3sPzgoW_WzyBz-10" value="result" style="html=1;verticalAlign=bottom;endArrow=open;dashed=1;endSize=8;labelBackgroundColor=none;fontFamily=Verdana;fontSize=12;edgeStyle=elbowEdgeStyle;elbow=horizontal;" edge="1" parent="1">
          <mxGeometry relative="1" as="geometry">
            <mxPoint x="160" y="380" as="targetPoint" />
            <Array as="points">
              <mxPoint x="266" y="379.8" />
              <mxPoint x="246" y="371.8" />
            </Array>
            <mxPoint x="305.5" y="380.00000000000006" as="sourcePoint" />
          </mxGeometry>
        </mxCell>
        <mxCell id="kKu1ekH3sPzgoW_WzyBz-12" value="POST:books" style="html=1;verticalAlign=bottom;endArrow=block;labelBackgroundColor=none;fontFamily=Verdana;fontSize=12;" edge="1" parent="1">
          <mxGeometry relative="1" as="geometry">
            <mxPoint x="160" y="420" as="sourcePoint" />
            <mxPoint x="300" y="420" as="targetPoint" />
          </mxGeometry>
        </mxCell>
        <mxCell id="kKu1ekH3sPzgoW_WzyBz-17" value="GET:books" style="html=1;verticalAlign=bottom;endArrow=block;labelBackgroundColor=none;fontFamily=Verdana;fontSize=12;" edge="1" parent="1" target="kKu1ekH3sPzgoW_WzyBz-3">
          <mxGeometry x="-0.2991" relative="1" as="geometry">
            <mxPoint x="320" y="440" as="sourcePoint" />
            <mxPoint x="460" y="440" as="targetPoint" />
            <mxPoint as="offset" />
          </mxGeometry>
        </mxCell>
        <mxCell id="kKu1ekH3sPzgoW_WzyBz-18" value="books" style="html=1;verticalAlign=bottom;endArrow=open;dashed=1;endSize=8;labelBackgroundColor=none;fontFamily=Verdana;fontSize=12;edgeStyle=elbowEdgeStyle;elbow=horizontal;" edge="1" parent="1">
          <mxGeometry x="0.3158" relative="1" as="geometry">
            <mxPoint x="320" y="460" as="targetPoint" />
            <Array as="points">
              <mxPoint x="580" y="460" />
            </Array>
            <mxPoint x="700" y="460" as="sourcePoint" />
            <mxPoint as="offset" />
          </mxGeometry>
        </mxCell>
        <mxCell id="kKu1ekH3sPzgoW_WzyBz-19" value="GET:recommendation" style="html=1;verticalAlign=bottom;endArrow=block;labelBackgroundColor=none;fontFamily=Verdana;fontSize=12;" edge="1" parent="1">
          <mxGeometry x="-0.2991" relative="1" as="geometry">
            <mxPoint x="315.25" y="480" as="sourcePoint" />
            <mxPoint x="704.75" y="480" as="targetPoint" />
            <mxPoint as="offset" />
          </mxGeometry>
        </mxCell>
        <mxCell id="kKu1ekH3sPzgoW_WzyBz-22" value="books" style="html=1;verticalAlign=bottom;endArrow=open;dashed=1;endSize=8;labelBackgroundColor=none;fontFamily=Verdana;fontSize=12;edgeStyle=elbowEdgeStyle;elbow=horizontal;" edge="1" parent="1">
          <mxGeometry x="0.3158" relative="1" as="geometry">
            <mxPoint x="320" y="500" as="targetPoint" />
            <Array as="points">
              <mxPoint x="580" y="500" />
            </Array>
            <mxPoint x="700" y="500" as="sourcePoint" />
            <mxPoint as="offset" />
          </mxGeometry>
        </mxCell>
        <mxCell id="kKu1ekH3sPzgoW_WzyBz-23" value="POST:users/orders" style="html=1;verticalAlign=bottom;endArrow=block;labelBackgroundColor=none;fontFamily=Verdana;fontSize=12;" edge="1" parent="1">
          <mxGeometry relative="1" as="geometry">
            <mxPoint x="160" y="550" as="sourcePoint" />
            <mxPoint x="300" y="550" as="targetPoint" />
          </mxGeometry>
        </mxCell>
        <mxCell id="kKu1ekH3sPzgoW_WzyBz-29" value="sort" style="edgeStyle=orthogonalEdgeStyle;html=1;align=left;spacingLeft=2;endArrow=block;rounded=0;" edge="1" parent="1">
          <mxGeometry relative="1" as="geometry">
            <mxPoint x="320" y="510" as="sourcePoint" />
            <Array as="points">
              <mxPoint x="350" y="510" />
            </Array>
            <mxPoint x="320" y="530" as="targetPoint" />
          </mxGeometry>
        </mxCell>
        <mxCell id="kKu1ekH3sPzgoW_WzyBz-30" value="&lt;span style=&quot;font-size: 12px ; text-align: center ; background-color: rgb(248 , 249 , 250)&quot;&gt;check user password&lt;/span&gt;" style="edgeStyle=orthogonalEdgeStyle;html=1;align=left;spacingLeft=2;endArrow=block;rounded=0;" edge="1" parent="1">
          <mxGeometry relative="1" as="geometry">
            <mxPoint x="320" y="340" as="sourcePoint" />
            <Array as="points">
              <mxPoint x="350" y="340" />
            </Array>
            <mxPoint x="320" y="360" as="targetPoint" />
          </mxGeometry>
        </mxCell>
        <mxCell id="kKu1ekH3sPzgoW_WzyBz-32" value="" style="html=1;points=[];perimeter=orthogonalPerimeter;rounded=0;shadow=0;comic=0;labelBackgroundColor=none;strokeWidth=1;fontFamily=Verdana;fontSize=12;align=center;" vertex="1" parent="1">
          <mxGeometry x="545" y="550" width="10" height="290" as="geometry" />
        </mxCell>
        <mxCell id="kKu1ekH3sPzgoW_WzyBz-33" value="saveOrder" style="html=1;verticalAlign=bottom;endArrow=block;labelBackgroundColor=none;fontFamily=Verdana;fontSize=12;" edge="1" parent="1">
          <mxGeometry relative="1" as="geometry">
            <mxPoint x="320" y="570" as="sourcePoint" />
            <mxPoint x="540" y="570" as="targetPoint" />
          </mxGeometry>
        </mxCell>
        <mxCell id="kKu1ekH3sPzgoW_WzyBz-34" value="result" style="html=1;verticalAlign=bottom;endArrow=open;dashed=1;endSize=8;labelBackgroundColor=none;fontFamily=Verdana;fontSize=12;edgeStyle=elbowEdgeStyle;elbow=horizontal;exitX=0;exitY=0.873;exitDx=0;exitDy=0;exitPerimeter=0;" edge="1" parent="1">
          <mxGeometry relative="1" as="geometry">
            <mxPoint x="320" y="590" as="targetPoint" />
            <Array as="points">
              <mxPoint x="380" y="590" />
            </Array>
            <mxPoint x="545" y="590.95" as="sourcePoint" />
          </mxGeometry>
        </mxCell>
        <mxCell id="kKu1ekH3sPzgoW_WzyBz-35" value="result" style="html=1;verticalAlign=bottom;endArrow=open;dashed=1;endSize=8;labelBackgroundColor=none;fontFamily=Verdana;fontSize=12;edgeStyle=elbowEdgeStyle;elbow=horizontal;" edge="1" parent="1">
          <mxGeometry relative="1" as="geometry">
            <mxPoint x="160" y="600" as="targetPoint" />
            <Array as="points">
              <mxPoint x="266" y="599.8" />
              <mxPoint x="246" y="591.8" />
            </Array>
            <mxPoint x="305.5" y="600" as="sourcePoint" />
          </mxGeometry>
        </mxCell>
        <mxCell id="kKu1ekH3sPzgoW_WzyBz-36" value="DELETE:users" style="html=1;verticalAlign=bottom;endArrow=block;entryX=0;entryY=0;labelBackgroundColor=none;fontFamily=Verdana;fontSize=12;edgeStyle=elbowEdgeStyle;elbow=vertical;" edge="1" parent="1">
          <mxGeometry relative="1" as="geometry">
            <mxPoint x="160" y="750" as="sourcePoint" />
            <mxPoint x="300" y="750" as="targetPoint" />
            <Array as="points">
              <mxPoint x="285" y="750" />
            </Array>
          </mxGeometry>
        </mxCell>
        <mxCell id="kKu1ekH3sPzgoW_WzyBz-37" value="deleteOrder" style="html=1;verticalAlign=bottom;endArrow=block;labelBackgroundColor=none;fontFamily=Verdana;fontSize=12;edgeStyle=elbowEdgeStyle;elbow=vertical;" edge="1" parent="1">
          <mxGeometry relative="1" as="geometry">
            <mxPoint x="320" y="810" as="sourcePoint" />
            <mxPoint x="540" y="810.5" as="targetPoint" />
            <Array as="points">
              <mxPoint x="455" y="810" />
            </Array>
          </mxGeometry>
        </mxCell>
        <mxCell id="kKu1ekH3sPzgoW_WzyBz-38" value="result" style="html=1;verticalAlign=bottom;endArrow=open;dashed=1;endSize=8;labelBackgroundColor=none;fontFamily=Verdana;fontSize=12;edgeStyle=elbowEdgeStyle;elbow=horizontal;exitX=0;exitY=0.873;exitDx=0;exitDy=0;exitPerimeter=0;" edge="1" parent="1">
          <mxGeometry relative="1" as="geometry">
            <mxPoint x="320" y="790" as="targetPoint" />
            <Array as="points">
              <mxPoint x="380" y="790" />
            </Array>
            <mxPoint x="545" y="790.95" as="sourcePoint" />
          </mxGeometry>
        </mxCell>
        <mxCell id="kKu1ekH3sPzgoW_WzyBz-39" value="deleteUser" style="html=1;verticalAlign=bottom;endArrow=block;labelBackgroundColor=none;fontFamily=Verdana;fontSize=12;edgeStyle=elbowEdgeStyle;elbow=vertical;" edge="1" parent="1">
          <mxGeometry relative="1" as="geometry">
            <mxPoint x="320" y="770" as="sourcePoint" />
            <mxPoint x="540" y="770.5" as="targetPoint" />
            <Array as="points">
              <mxPoint x="455" y="770" />
            </Array>
          </mxGeometry>
        </mxCell>
        <mxCell id="kKu1ekH3sPzgoW_WzyBz-40" value="result" style="html=1;verticalAlign=bottom;endArrow=open;dashed=1;endSize=8;labelBackgroundColor=none;fontFamily=Verdana;fontSize=12;edgeStyle=elbowEdgeStyle;elbow=horizontal;exitX=0;exitY=0.873;exitDx=0;exitDy=0;exitPerimeter=0;" edge="1" parent="1">
          <mxGeometry relative="1" as="geometry">
            <mxPoint x="320" y="830" as="targetPoint" />
            <Array as="points">
              <mxPoint x="380" y="830" />
            </Array>
            <mxPoint x="545" y="830.95" as="sourcePoint" />
          </mxGeometry>
        </mxCell>
        <mxCell id="kKu1ekH3sPzgoW_WzyBz-43" value="GET:users" style="html=1;verticalAlign=bottom;endArrow=block;labelBackgroundColor=none;fontFamily=Verdana;fontSize=12;" edge="1" parent="1">
          <mxGeometry relative="1" as="geometry">
            <mxPoint x="160" y="630" as="sourcePoint" />
            <mxPoint x="300" y="630" as="targetPoint" />
          </mxGeometry>
        </mxCell>
        <mxCell id="kKu1ekH3sPzgoW_WzyBz-44" value="getUserByUsername" style="html=1;verticalAlign=bottom;endArrow=block;labelBackgroundColor=none;fontFamily=Verdana;fontSize=12;" edge="1" parent="1">
          <mxGeometry relative="1" as="geometry">
            <mxPoint x="320" y="640" as="sourcePoint" />
            <mxPoint x="540" y="640" as="targetPoint" />
          </mxGeometry>
        </mxCell>
        <mxCell id="kKu1ekH3sPzgoW_WzyBz-45" value="result" style="html=1;verticalAlign=bottom;endArrow=open;dashed=1;endSize=8;labelBackgroundColor=none;fontFamily=Verdana;fontSize=12;edgeStyle=elbowEdgeStyle;elbow=horizontal;exitX=0;exitY=0.873;exitDx=0;exitDy=0;exitPerimeter=0;" edge="1" parent="1">
          <mxGeometry relative="1" as="geometry">
            <mxPoint x="320" y="660" as="targetPoint" />
            <Array as="points">
              <mxPoint x="380" y="660" />
            </Array>
            <mxPoint x="545" y="660.95" as="sourcePoint" />
          </mxGeometry>
        </mxCell>
        <mxCell id="kKu1ekH3sPzgoW_WzyBz-46" value="getOrderByUsername" style="html=1;verticalAlign=bottom;endArrow=block;labelBackgroundColor=none;fontFamily=Verdana;fontSize=12;" edge="1" parent="1">
          <mxGeometry relative="1" as="geometry">
            <mxPoint x="325" y="680" as="sourcePoint" />
            <mxPoint x="545" y="680" as="targetPoint" />
          </mxGeometry>
        </mxCell>
        <mxCell id="kKu1ekH3sPzgoW_WzyBz-47" value="result" style="html=1;verticalAlign=bottom;endArrow=open;dashed=1;endSize=8;labelBackgroundColor=none;fontFamily=Verdana;fontSize=12;edgeStyle=elbowEdgeStyle;elbow=horizontal;exitX=0;exitY=0.873;exitDx=0;exitDy=0;exitPerimeter=0;" edge="1" parent="1">
          <mxGeometry relative="1" as="geometry">
            <mxPoint x="320" y="694.5" as="targetPoint" />
            <Array as="points">
              <mxPoint x="380" y="694.5" />
            </Array>
            <mxPoint x="545" y="695.45" as="sourcePoint" />
          </mxGeometry>
        </mxCell>
        <mxCell id="kKu1ekH3sPzgoW_WzyBz-48" value="result" style="html=1;verticalAlign=bottom;endArrow=open;dashed=1;endSize=8;labelBackgroundColor=none;fontFamily=Verdana;fontSize=12;edgeStyle=elbowEdgeStyle;elbow=horizontal;" edge="1" parent="1">
          <mxGeometry relative="1" as="geometry">
            <mxPoint x="160" y="710" as="targetPoint" />
            <Array as="points">
              <mxPoint x="190" y="710" />
            </Array>
            <mxPoint x="300" y="710" as="sourcePoint" />
          </mxGeometry>
        </mxCell>
        <mxCell id="kKu1ekH3sPzgoW_WzyBz-49" value="result" style="html=1;verticalAlign=bottom;endArrow=open;dashed=1;endSize=8;labelBackgroundColor=none;fontFamily=Verdana;fontSize=12;edgeStyle=elbowEdgeStyle;elbow=horizontal;" edge="1" parent="1">
          <mxGeometry relative="1" as="geometry">
            <mxPoint x="160" y="839" as="targetPoint" />
            <Array as="points">
              <mxPoint x="190" y="839" />
            </Array>
            <mxPoint x="300" y="839" as="sourcePoint" />
          </mxGeometry>
        </mxCell>
        <mxCell id="kKu1ekH3sPzgoW_WzyBz-50" value="Book store Sequence Diagram" style="text;align=center;fontStyle=1;verticalAlign=middle;spacingLeft=3;spacingRight=3;strokeColor=none;rotatable=0;points=[[0,0.5],[1,0.5]];portConstraint=eastwest;gradientColor=#33001A;" vertex="1" parent="1">
          <mxGeometry x="380" y="50" width="80" height="26" as="geometry" />
        </mxCell>
      </root>
    </mxGraphModel>
  </diagram>
</mxfile>
